<svg width="16" height="16" viewBox="0 0 16 16" fill="none" xmlns="http://www.w3.org/2000/svg">
<g clip-path="url(#clip0_2_67)">
<path d="M7.75 0C3.46875 0 0 3.46875 0 7.75C0 12.0312 3.46875 15.5 7.75 15.5C12.0312 15.5 15.5 12.0312 15.5 7.75C15.5 3.46875 12.0312 0 7.75 0Z" fill="#EED202"/>
<path d="M9.4875 11.3C9.4875 12.1271 8.8146 12.8 7.9875 12.8C7.1604 12.8 6.4875 12.1271 6.4875 11.3C6.4875 10.4729 7.1604 9.8 7.9875 9.8C8.8146 9.8 9.4875 10.4729 9.4875 11.3ZM6.66113 3.67248L6.91613 8.77248C6.92811 9.01197 7.12577 9.2 7.36556 9.2H8.60944C8.84923 9.2 9.04689 9.01197 9.05888 8.77248L9.31388 3.67248C9.32672 3.41544 9.1218 3.2 8.86444 3.2H7.11056C6.8532 3.2 6.64828 3.41544 6.66113 3.67248Z" fill="white"/>
</g>
<defs>
<clipPath id="clip0_2_67">
<rect width="16" height="16" fill="white"/>
</clipPath>
</defs>
</svg>
