<svg width="16" height="16" viewBox="0 0 16 16" fill="none" xmlns="http://www.w3.org/2000/svg">
<path d="M1.75 2C0.784 2 0 2.784 0 3.75V12.25C0 12.7141 0.184374 13.1592 0.512563 13.4874C0.840752 13.8156 1.28587 14 1.75 14H14.25C14.7141 14 15.1592 13.8156 15.4874 13.4874C15.8156 13.1592 16 12.7141 16 12.25V3.75C16 2.784 15.216 2 14.25 2H1.75Z" fill="black"/>
<path d="M2.25844 5.24408C2.09296 5.40036 2 5.61232 2 5.83333C2 6.05435 2.09296 6.26631 2.25844 6.42259C2.42391 6.57887 2.64834 6.66667 2.88235 6.66667H11.1176C11.3517 6.66667 11.5761 6.57887 11.7416 6.42259C11.907 6.26631 12 6.05435 12 5.83333C12 5.61232 11.907 5.40036 11.7416 5.24408C11.5761 5.0878 11.3517 5 11.1176 5H2.88235C2.64834 5 2.42391 5.0878 2.25844 5.24408Z" fill="white"/>
<path d="M7.58824 8.33333H2.88235C2.64834 8.33333 2.42391 8.42113 2.25844 8.57741C2.09296 8.73369 2 8.94565 2 9.16667C2 9.38768 2.09296 9.59964 2.25844 9.75592C2.42391 9.9122 2.64834 10 2.88235 10H7.58824C7.82225 10 8.04668 9.9122 8.21215 9.75592C8.37763 9.59964 8.47059 9.38768 8.47059 9.16667C8.47059 8.94565 8.37763 8.73369 8.21215 8.57741C8.04668 8.42113 7.82225 8.33333 7.58824 8.33333Z" fill="white"/>
<path d="M0 3.75C0 2.784 0.784 2 1.75 2H14.25C15.216 2 16 2.784 16 3.75V12.25C16 12.7141 15.8156 13.1592 15.4874 13.4874C15.1592 13.8156 14.7141 14 14.25 14H1.75C1.28587 14 0.840752 13.8156 0.512563 13.4874C0.184374 13.1592 0 12.7141 0 12.25L0 3.75ZM1.75 3.5C1.6837 3.5 1.62011 3.52634 1.57322 3.57322C1.52634 3.62011 1.5 3.6837 1.5 3.75V12.25C1.5 12.388 1.612 12.5 1.75 12.5H14.25C14.3163 12.5 14.3799 12.4737 14.4268 12.4268C14.4737 12.3799 14.5 12.3163 14.5 12.25V3.75C14.5 3.6837 14.4737 3.62011 14.4268 3.57322C14.3799 3.52634 14.3163 3.5 14.25 3.5H1.75Z" fill="black"/>
</svg>
