<svg width="16" height="16" viewBox="0 0 16 16" fill="none" xmlns="http://www.w3.org/2000/svg">
<path d="M5.99992 13.9999C5.99992 14.3333 6.26659 14.6666 6.66659 14.6666H9.33325C9.73325 14.6666 9.99992 14.3333 9.99992 13.9999V13.3333H5.99992V13.9999ZM7.99992 1.33325C5.39992 1.33325 3.33325 3.39992 3.33325 5.99992C3.33325 7.59992 4.13325 8.99992 5.33325 9.79992V11.3333C5.33325 11.6666 5.59992 11.9999 5.99992 11.9999H9.99992C10.3999 11.9999 10.6666 11.6666 10.6666 11.3333V9.79992C11.8666 8.93325 12.6666 7.53325 12.6666 5.99992C12.6666 3.39992 10.5999 1.33325 7.99992 1.33325Z" fill="#5CB85C"/>
</svg>
